<svg width="2193" height="1024" viewBox="0 0 2193 1024" fill="none" xmlns="http://www.w3.org/2000/svg">
<g clip-path="url(#clip0_825_789)">
<rect width="2193" height="1024" fill="#F0D6BD"/>
<circle cx="277.638" cy="163.691" r="40.6915" fill="#FAFAFA" fill-opacity="0.9"/>
<circle cx="277.638" cy="163.691" r="40.6915" fill="#FAFAFA" fill-opacity="0.9"/>
<circle cx="311.819" cy="197.872" r="34.1809" fill="#FAFAFA" fill-opacity="0.9"/>
<circle cx="223.112" cy="193.803" r="30.1117" fill="#FAFAFA" fill-opacity="0.9"/>
<circle cx="253.224" cy="204.383" r="30.1117" fill="#FAFAFA" fill-opacity="0.9"/>
<circle cx="253.224" cy="204.383" r="30.1117" fill="#FAFAFA" fill-opacity="0.9"/>
<circle cx="1435.64" cy="320.691" r="40.6915" fill="#FAFAFA" fill-opacity="0.9"/>
<circle cx="1435.64" cy="320.691" r="40.6915" fill="#FAFAFA" fill-opacity="0.9"/>
<circle cx="1469.82" cy="354.872" r="34.1809" fill="#FAFAFA" fill-opacity="0.9"/>
<circle cx="1381.11" cy="350.803" r="30.1117" fill="#FAFAFA" fill-opacity="0.9"/>
<circle cx="1411.22" cy="361.383" r="30.1117" fill="#FAFAFA" fill-opacity="0.9"/>
<circle cx="1411.22" cy="361.383" r="30.1117" fill="#FAFAFA" fill-opacity="0.9"/>
<circle cx="1772.64" cy="9.69149" r="40.6915" fill="#FAFAFA" fill-opacity="0.9"/>
<circle cx="1772.64" cy="9.69149" r="40.6915" fill="#FAFAFA" fill-opacity="0.9"/>
<circle cx="1806.82" cy="43.8723" r="34.1809" fill="#FAFAFA" fill-opacity="0.9"/>
<circle cx="1718.11" cy="39.8032" r="30.1117" fill="#FAFAFA" fill-opacity="0.9"/>
<circle cx="1748.22" cy="50.383" r="30.1117" fill="#FAFAFA" fill-opacity="0.9"/>
<circle cx="1748.22" cy="50.383" r="30.1117" fill="#FAFAFA" fill-opacity="0.9"/>
<circle cx="2160.64" cy="-7.30851" r="40.6915" fill="#FAFAFA" fill-opacity="0.9"/>
<circle cx="2160.64" cy="-7.30851" r="40.6915" fill="#FAFAFA" fill-opacity="0.9"/>
<circle cx="2194.82" cy="26.8723" r="34.1809" fill="#FAFAFA" fill-opacity="0.9"/>
<circle cx="2106.11" cy="22.8032" r="30.1117" fill="#FAFAFA" fill-opacity="0.9"/>
<circle cx="2136.22" cy="33.383" r="30.1117" fill="#FAFAFA" fill-opacity="0.9"/>
<circle cx="2136.22" cy="33.383" r="30.1117" fill="#FAFAFA" fill-opacity="0.9"/>
<circle cx="60.6383" cy="370.691" r="40.6915" fill="#FAFAFA" fill-opacity="0.9"/>
<circle cx="60.6383" cy="370.691" r="40.6915" fill="#FAFAFA" fill-opacity="0.9"/>
<circle cx="94.819" cy="404.872" r="34.1809" fill="#FAFAFA" fill-opacity="0.9"/>
<circle cx="6.1117" cy="400.803" r="30.1117" fill="#FAFAFA" fill-opacity="0.9"/>
<circle cx="36.2235" cy="411.383" r="30.1117" fill="#FAFAFA" fill-opacity="0.9"/>
<circle cx="36.2235" cy="411.383" r="30.1117" fill="#FAFAFA" fill-opacity="0.9"/>
<circle cx="674" cy="224" r="50" fill="#FAFAFA" fill-opacity="0.9"/>
<circle cx="716" cy="266" r="42" fill="#FAFAFA" fill-opacity="0.9"/>
<circle cx="607" cy="261" r="37" fill="#FAFAFA" fill-opacity="0.9"/>
<circle cx="644" cy="274" r="37" fill="#FAFAFA" fill-opacity="0.9"/>
<circle cx="50" cy="50" r="50" transform="matrix(-1 0 0 1 815 156)" fill="#FAFAFA" fill-opacity="0.9"/>
<circle cx="42" cy="42" r="42" transform="matrix(-1 0 0 1 765 206)" fill="#FAFAFA" fill-opacity="0.9"/>
<circle cx="37" cy="37" r="37" transform="matrix(-1 0 0 1 869 206)" fill="#FAFAFA" fill-opacity="0.9"/>
<circle cx="37" cy="37" r="37" transform="matrix(-1 0 0 1 832 219)" fill="#FAFAFA" fill-opacity="0.9"/>
<circle cx="42" cy="42" r="42" transform="matrix(-1 0 0 1 2271 338)" fill="#FAFAFA" fill-opacity="0.9"/>
<circle cx="2180" cy="320" r="50" fill="#FAFAFA" fill-opacity="0.9"/>
<circle cx="2222" cy="362" r="42" fill="#FAFAFA" fill-opacity="0.9"/>
<circle cx="2113" cy="357" r="37" fill="#FAFAFA" fill-opacity="0.9"/>
<circle cx="2150" cy="370" r="37" fill="#FAFAFA" fill-opacity="0.9"/>
<circle cx="1240" cy="145" r="42" fill="#FAFAFA" fill-opacity="0.9"/>
<circle cx="1163" cy="132" r="50" fill="#FAFAFA" fill-opacity="0.9"/>
<circle cx="1163" cy="132" r="50" fill="#FAFAFA" fill-opacity="0.9"/>
<circle cx="1205" cy="174" r="42" fill="#FAFAFA" fill-opacity="0.9"/>
<circle cx="1096" cy="169" r="37" fill="#FAFAFA" fill-opacity="0.9"/>
<circle cx="1133" cy="182" r="37" fill="#FAFAFA" fill-opacity="0.9"/>
<circle cx="42" cy="42" r="42" transform="matrix(-1 0 0 1 1688 182)" fill="#FAFAFA" fill-opacity="0.9"/>
<circle cx="50" cy="50" r="50" transform="matrix(-1 0 0 1 1773 161)" fill="#FAFAFA" fill-opacity="0.9"/>
<circle cx="50" cy="50" r="50" transform="matrix(-1 0 0 1 1773 161)" fill="#FAFAFA" fill-opacity="0.9"/>
<circle cx="42" cy="42" r="42" transform="matrix(-1 0 0 1 1723 211)" fill="#FAFAFA" fill-opacity="0.9"/>
<circle cx="37" cy="37" r="37" transform="matrix(-1 0 0 1 1827 211)" fill="#FAFAFA" fill-opacity="0.9"/>
<circle cx="37" cy="37" r="37" transform="matrix(-1 0 0 1 1790 224)" fill="#FAFAFA" fill-opacity="0.9"/>
<circle cx="46" cy="63" r="42" fill="#FAFAFA" fill-opacity="0.9"/>
<circle cx="-31" cy="50" r="50" fill="#FAFAFA" fill-opacity="0.9"/>
<circle cx="-31" cy="50" r="50" fill="#FAFAFA" fill-opacity="0.9"/>
<circle cx="11" cy="92" r="42" fill="#FAFAFA" fill-opacity="0.9"/>
<circle cx="491.125" cy="367.812" r="27.8744" fill="#FAFAFA" fill-opacity="0.9"/>
<circle cx="440.022" cy="359.184" r="33.1839" fill="#FAFAFA" fill-opacity="0.9"/>
<circle cx="440.022" cy="359.184" r="33.1839" fill="#FAFAFA" fill-opacity="0.9"/>
<circle cx="467.897" cy="387.058" r="27.8744" fill="#FAFAFA" fill-opacity="0.9"/>
<circle cx="395.556" cy="383.74" r="24.5561" fill="#FAFAFA" fill-opacity="0.9"/>
<circle cx="420.112" cy="392.368" r="24.5561" fill="#FAFAFA" fill-opacity="0.9"/>
<circle cx="565.125" cy="7.81166" r="27.8744" fill="#FAFAFA" fill-opacity="0.9"/>
<circle cx="514.022" cy="-0.816143" r="33.1839" fill="#FAFAFA" fill-opacity="0.9"/>
<circle cx="514.022" cy="-0.816143" r="33.1839" fill="#FAFAFA" fill-opacity="0.9"/>
<circle cx="541.897" cy="27.0583" r="27.8744" fill="#FAFAFA" fill-opacity="0.9"/>
<circle cx="469.556" cy="23.7399" r="24.5561" fill="#FAFAFA" fill-opacity="0.9"/>
<circle cx="494.112" cy="32.3677" r="24.5561" fill="#FAFAFA" fill-opacity="0.9"/>
<circle cx="989.125" cy="38.8117" r="27.8744" fill="#FAFAFA" fill-opacity="0.9"/>
<circle cx="938.022" cy="30.1839" r="33.1839" fill="#FAFAFA" fill-opacity="0.9"/>
<circle cx="938.022" cy="30.1839" r="33.1839" fill="#FAFAFA" fill-opacity="0.9"/>
<circle cx="965.897" cy="58.0583" r="27.8744" fill="#FAFAFA" fill-opacity="0.9"/>
<circle cx="893.556" cy="54.7399" r="24.5561" fill="#FAFAFA" fill-opacity="0.9"/>
<circle cx="918.112" cy="63.3677" r="24.5561" fill="#FAFAFA" fill-opacity="0.9"/>
<circle cx="27.8744" cy="27.8744" r="27.8744" transform="matrix(-1 0 0 1 1983.75 124.937)" fill="#FAFAFA" fill-opacity="0.9"/>
<circle cx="33.1839" cy="33.1839" r="33.1839" transform="matrix(-1 0 0 1 2040.16 111)" fill="#FAFAFA" fill-opacity="0.9"/>
<circle cx="33.1839" cy="33.1839" r="33.1839" transform="matrix(-1 0 0 1 2040.16 111)" fill="#FAFAFA" fill-opacity="0.9"/>
<circle cx="27.8744" cy="27.8744" r="27.8744" transform="matrix(-1 0 0 1 2006.98 144.184)" fill="#FAFAFA" fill-opacity="0.9"/>
<circle cx="24.5561" cy="24.5561" r="24.5561" transform="matrix(-1 0 0 1 2076 144.184)" fill="#FAFAFA" fill-opacity="0.9"/>
<circle cx="24.5561" cy="24.5561" r="24.5561" transform="matrix(-1 0 0 1 2051.44 152.812)" fill="#FAFAFA" fill-opacity="0.9"/>
<circle cx="27.8744" cy="27.8744" r="27.8744" transform="matrix(-0.982673 0.185347 0.185347 0.982673 999.222 363.866)" fill="#FAFAFA" fill-opacity="0.9"/>
<circle cx="33.1839" cy="33.1839" r="33.1839" transform="matrix(-0.982673 0.185347 0.185347 0.982673 1052.07 339.715)" fill="#FAFAFA" fill-opacity="0.9"/>
<circle cx="33.1839" cy="33.1839" r="33.1839" transform="matrix(-0.982673 0.185347 0.185347 0.982673 1052.07 339.715)" fill="#FAFAFA" fill-opacity="0.9"/>
<circle cx="27.8744" cy="27.8744" r="27.8744" transform="matrix(-0.982673 0.185347 0.185347 0.982673 1025.62 378.474)" fill="#FAFAFA" fill-opacity="0.9"/>
<circle cx="27.8744" cy="27.8744" r="27.8744" transform="matrix(-0.982673 0.185347 0.185347 0.982673 1025.62 378.474)" fill="#FAFAFA" fill-opacity="0.9"/>
<circle cx="24.5561" cy="24.5561" r="24.5561" transform="matrix(-0.982673 0.185347 0.185347 0.982673 1093.44 365.681)" fill="#FAFAFA" fill-opacity="0.9"/>
<circle cx="24.5561" cy="24.5561" r="24.5561" transform="matrix(-0.982673 0.185347 0.185347 0.982673 1070.91 378.711)" fill="#FAFAFA" fill-opacity="0.9"/>
<circle cx="1427.13" cy="38.8117" r="27.8744" fill="#FAFAFA" fill-opacity="0.9"/>
<circle cx="1376.02" cy="30.1839" r="33.1839" fill="#FAFAFA" fill-opacity="0.9"/>
<circle cx="1376.02" cy="30.1839" r="33.1839" fill="#FAFAFA" fill-opacity="0.9"/>
<circle cx="1403.9" cy="58.0583" r="27.8744" fill="#FAFAFA" fill-opacity="0.9"/>
<circle cx="1331.56" cy="54.7399" r="24.5561" fill="#FAFAFA" fill-opacity="0.9"/>
<circle cx="1356.11" cy="63.3677" r="24.5561" fill="#FAFAFA" fill-opacity="0.9"/>
<g filter="url(#filter0_b_825_789)">
<rect width="2193" height="105" fill="#D9D9D9" fill-opacity="0.3"/>
</g>
<rect x="1855" y="26" width="201" height="52" rx="26" fill="#142664"/>
<path d="M1926.24 48.2756C1926.16 47.6032 1925.85 47.0824 1925.3 46.7131C1924.75 46.339 1924.06 46.152 1923.23 46.152C1922.63 46.152 1922.11 46.2467 1921.68 46.4361C1921.24 46.6207 1920.9 46.8764 1920.66 47.2031C1920.43 47.5251 1920.31 47.892 1920.31 48.304C1920.31 48.6496 1920.39 48.9479 1920.55 49.1989C1920.72 49.4498 1920.93 49.6605 1921.2 49.831C1921.47 49.9967 1921.75 50.1364 1922.06 50.25C1922.37 50.3589 1922.67 50.4489 1922.95 50.5199L1924.37 50.8892C1924.83 51.0028 1925.31 51.1567 1925.8 51.3509C1926.29 51.545 1926.74 51.8007 1927.15 52.1179C1927.57 52.4351 1927.91 52.8281 1928.16 53.2969C1928.42 53.7656 1928.55 54.3267 1928.55 54.9801C1928.55 55.804 1928.34 56.5355 1927.91 57.1747C1927.49 57.8139 1926.88 58.3182 1926.07 58.6875C1925.27 59.0568 1924.31 59.2415 1923.17 59.2415C1922.08 59.2415 1921.14 59.0687 1920.34 58.723C1919.55 58.3774 1918.93 57.8873 1918.48 57.2528C1918.03 56.6136 1917.78 55.8561 1917.73 54.9801H1919.93C1919.97 55.5057 1920.14 55.9437 1920.44 56.294C1920.75 56.6397 1921.13 56.8977 1921.6 57.0682C1922.07 57.2339 1922.59 57.3168 1923.16 57.3168C1923.78 57.3168 1924.33 57.2197 1924.81 57.0256C1925.3 56.8267 1925.68 56.5521 1925.96 56.2017C1926.24 55.8466 1926.38 55.4323 1926.38 54.9588C1926.38 54.5279 1926.26 54.1752 1926.01 53.9006C1925.77 53.6259 1925.44 53.3987 1925.02 53.2188C1924.61 53.0388 1924.15 52.8802 1923.62 52.7429L1921.91 52.2741C1920.74 51.9569 1919.82 51.4905 1919.14 50.875C1918.46 50.2595 1918.12 49.4451 1918.12 48.4318C1918.12 47.5937 1918.35 46.8622 1918.8 46.2372C1919.26 45.6122 1919.87 45.1269 1920.65 44.7812C1921.43 44.4309 1922.3 44.2557 1923.28 44.2557C1924.26 44.2557 1925.13 44.4285 1925.88 44.7741C1926.64 45.1198 1927.24 45.5956 1927.67 46.2017C1928.11 46.803 1928.34 47.4943 1928.35 48.2756H1926.24ZM1935.6 59.2202C1934.58 59.2202 1933.69 58.9858 1932.92 58.517C1932.16 58.0483 1931.57 57.3925 1931.15 56.5497C1930.73 55.7069 1930.52 54.7221 1930.52 53.5952C1930.52 52.4635 1930.73 51.474 1931.15 50.6264C1931.57 49.7789 1932.16 49.1207 1932.92 48.652C1933.69 48.1832 1934.58 47.9489 1935.6 47.9489C1936.62 47.9489 1937.52 48.1832 1938.28 48.652C1939.04 49.1207 1939.63 49.7789 1940.05 50.6264C1940.48 51.474 1940.69 52.4635 1940.69 53.5952C1940.69 54.7221 1940.48 55.7069 1940.05 56.5497C1939.63 57.3925 1939.04 58.0483 1938.28 58.517C1937.52 58.9858 1936.62 59.2202 1935.6 59.2202ZM1935.61 57.4375C1936.27 57.4375 1936.82 57.2623 1937.26 56.9119C1937.69 56.5616 1938.01 56.0952 1938.22 55.5128C1938.43 54.9304 1938.54 54.2888 1938.54 53.5881C1938.54 52.892 1938.43 52.2528 1938.22 51.6705C1938.01 51.0833 1937.69 50.6122 1937.26 50.2571C1936.82 49.902 1936.27 49.7244 1935.61 49.7244C1934.94 49.7244 1934.39 49.902 1933.95 50.2571C1933.51 50.6122 1933.19 51.0833 1932.97 51.6705C1932.76 52.2528 1932.66 52.892 1932.66 53.5881C1932.66 54.2888 1932.76 54.9304 1932.97 55.5128C1933.19 56.0952 1933.51 56.5616 1933.95 56.9119C1934.39 57.2623 1934.94 57.4375 1935.61 57.4375ZM1945.18 52.5227V59H1943.06V48.0909H1945.09V49.8665H1945.23C1945.48 49.2888 1945.87 48.8248 1946.41 48.4744C1946.95 48.1241 1947.63 47.9489 1948.45 47.9489C1949.19 47.9489 1949.84 48.1051 1950.4 48.4176C1950.96 48.7254 1951.39 49.1847 1951.7 49.7955C1952.01 50.4062 1952.16 51.1615 1952.16 52.0611V59H1950.04V52.3168C1950.04 51.526 1949.83 50.9081 1949.42 50.4631C1949.01 50.0133 1948.44 49.7884 1947.72 49.7884C1947.23 49.7884 1946.79 49.8949 1946.41 50.108C1946.03 50.321 1945.73 50.6335 1945.51 51.0455C1945.29 51.4527 1945.18 51.9451 1945.18 52.5227ZM1958.18 59.2415C1957.49 59.2415 1956.87 59.1136 1956.31 58.858C1955.75 58.5975 1955.31 58.2211 1954.98 57.7287C1954.66 57.2363 1954.5 56.6326 1954.5 55.9176C1954.5 55.3021 1954.62 54.7955 1954.85 54.3977C1955.09 54 1955.41 53.6851 1955.81 53.4531C1956.21 53.2211 1956.66 53.0459 1957.16 52.9276C1957.66 52.8092 1958.17 52.7192 1958.68 52.6577C1959.33 52.5819 1959.87 52.5204 1960.27 52.473C1960.68 52.4209 1960.98 52.3381 1961.16 52.2244C1961.34 52.1108 1961.44 51.9261 1961.44 51.6705V51.6207C1961.44 51.0005 1961.26 50.5199 1960.91 50.179C1960.57 49.8381 1960.05 49.6676 1959.36 49.6676C1958.65 49.6676 1958.08 49.8262 1957.67 50.1435C1957.27 50.456 1956.98 50.804 1956.83 51.1875L1954.83 50.733C1955.07 50.0701 1955.41 49.535 1955.87 49.1278C1956.33 48.7159 1956.86 48.4176 1957.45 48.233C1958.05 48.0436 1958.68 47.9489 1959.33 47.9489C1959.77 47.9489 1960.23 48.0009 1960.72 48.1051C1961.21 48.2045 1961.67 48.3892 1962.1 48.6591C1962.53 48.929 1962.88 49.3149 1963.16 49.8168C1963.43 50.3139 1963.57 50.9602 1963.57 51.7557V59H1961.49V57.5085H1961.41C1961.27 57.7831 1961.07 58.053 1960.79 58.3182C1960.52 58.5833 1960.16 58.8035 1959.73 58.9787C1959.3 59.1539 1958.79 59.2415 1958.18 59.2415ZM1958.65 57.5369C1959.23 57.5369 1959.73 57.4209 1960.15 57.1889C1960.57 56.9569 1960.89 56.6539 1961.11 56.2798C1961.33 55.901 1961.44 55.4962 1961.44 55.0653V53.6591C1961.37 53.7348 1961.22 53.8059 1961 53.8722C1960.79 53.9337 1960.55 53.9882 1960.27 54.0355C1960 54.0781 1959.73 54.1184 1959.47 54.1562C1959.21 54.1894 1958.99 54.2178 1958.82 54.2415C1958.4 54.2936 1958.03 54.3812 1957.69 54.5043C1957.35 54.6274 1957.08 54.8049 1956.88 55.0369C1956.68 55.2642 1956.58 55.5672 1956.58 55.946C1956.58 56.4716 1956.77 56.8693 1957.16 57.1392C1957.55 57.4044 1958.04 57.5369 1958.65 57.5369ZM1971.86 44.4545H1974.52L1979.15 55.7614H1979.32L1983.95 44.4545H1986.62V59H1984.53V48.4744H1984.4L1980.11 58.9787H1978.37L1974.08 48.4673H1973.95V59H1971.86V44.4545ZM1992.81 59.2415C1992.12 59.2415 1991.5 59.1136 1990.94 58.858C1990.38 58.5975 1989.94 58.2211 1989.61 57.7287C1989.29 57.2363 1989.13 56.6326 1989.13 55.9176C1989.13 55.3021 1989.25 54.7955 1989.48 54.3977C1989.72 54 1990.04 53.6851 1990.44 53.4531C1990.84 53.2211 1991.29 53.0459 1991.79 52.9276C1992.29 52.8092 1992.79 52.7192 1993.31 52.6577C1993.96 52.5819 1994.49 52.5204 1994.9 52.473C1995.31 52.4209 1995.6 52.3381 1995.79 52.2244C1995.97 52.1108 1996.07 51.9261 1996.07 51.6705V51.6207C1996.07 51.0005 1995.89 50.5199 1995.54 50.179C1995.19 49.8381 1994.68 49.6676 1993.99 49.6676C1993.28 49.6676 1992.71 49.8262 1992.3 50.1435C1991.89 50.456 1991.61 50.804 1991.46 51.1875L1989.46 50.733C1989.7 50.0701 1990.04 49.535 1990.5 49.1278C1990.96 48.7159 1991.49 48.4176 1992.08 48.233C1992.68 48.0436 1993.31 47.9489 1993.96 47.9489C1994.4 47.9489 1994.86 48.0009 1995.35 48.1051C1995.84 48.2045 1996.3 48.3892 1996.73 48.6591C1997.16 48.929 1997.51 49.3149 1997.78 49.8168C1998.06 50.3139 1998.2 50.9602 1998.2 51.7557V59H1996.12V57.5085H1996.04C1995.9 57.7831 1995.69 58.053 1995.42 58.3182C1995.15 58.5833 1994.79 58.8035 1994.36 58.9787C1993.93 59.1539 1993.41 59.2415 1992.81 59.2415ZM1993.27 57.5369C1993.86 57.5369 1994.36 57.4209 1994.78 57.1889C1995.2 56.9569 1995.52 56.6539 1995.74 56.2798C1995.96 55.901 1996.07 55.4962 1996.07 55.0653V53.6591C1996 53.7348 1995.85 53.8059 1995.63 53.8722C1995.42 53.9337 1995.18 53.9882 1994.9 54.0355C1994.63 54.0781 1994.36 54.1184 1994.1 54.1562C1993.84 54.1894 1993.62 54.2178 1993.45 54.2415C1993.03 54.2936 1992.66 54.3812 1992.32 54.5043C1991.98 54.6274 1991.71 54.8049 1991.51 55.0369C1991.31 55.2642 1991.21 55.5672 1991.21 55.946C1991.21 56.4716 1991.4 56.8693 1991.79 57.1392C1992.18 57.4044 1992.67 57.5369 1993.27 57.5369ZM2001.03 59V48.0909H2003.08V49.8239H2003.19C2003.39 49.2367 2003.74 48.7751 2004.24 48.4389C2004.75 48.098 2005.32 47.9276 2005.96 47.9276C2006.09 47.9276 2006.25 47.9323 2006.43 47.9418C2006.61 47.9512 2006.76 47.9631 2006.86 47.9773V50.0085C2006.78 49.9848 2006.63 49.9588 2006.41 49.9304C2006.19 49.8973 2005.97 49.8807 2005.76 49.8807C2005.25 49.8807 2004.81 49.9872 2004.41 50.2003C2004.02 50.4086 2003.72 50.6998 2003.49 51.0739C2003.26 51.4432 2003.15 51.8646 2003.15 52.3381V59H2001.03ZM2014.44 48.0909V49.7955H2008.48V48.0909H2014.44ZM2010.08 45.4773H2012.2V55.7969C2012.2 56.2088 2012.26 56.5189 2012.39 56.7273C2012.51 56.9309 2012.67 57.0705 2012.86 57.1463C2013.06 57.2173 2013.28 57.2528 2013.51 57.2528C2013.68 57.2528 2013.83 57.241 2013.95 57.2173C2014.08 57.1937 2014.18 57.1747 2014.25 57.1605L2014.64 58.9148C2014.51 58.9621 2014.34 59.0095 2014.11 59.0568C2013.88 59.1089 2013.6 59.1373 2013.26 59.142C2012.7 59.1515 2012.18 59.0521 2011.7 58.8438C2011.21 58.6354 2010.82 58.3134 2010.52 57.8778C2010.23 57.4422 2010.08 56.8954 2010.08 56.2372V45.4773ZM2016.79 59V48.0909H2018.91V59H2016.79ZM2017.86 46.4077C2017.49 46.4077 2017.17 46.2846 2016.91 46.0384C2016.65 45.7874 2016.52 45.4891 2016.52 45.1435C2016.52 44.7931 2016.65 44.4948 2016.91 44.2486C2017.17 43.9976 2017.49 43.8722 2017.86 43.8722C2018.23 43.8722 2018.54 43.9976 2018.8 44.2486C2019.07 44.4948 2019.2 44.7931 2019.2 45.1435C2019.2 45.4891 2019.07 45.7874 2018.8 46.0384C2018.54 46.2846 2018.23 46.4077 2017.86 46.4077ZM2023.89 52.5227V59H2021.77V48.0909H2023.81V49.8665H2023.94C2024.19 49.2888 2024.58 48.8248 2025.12 48.4744C2025.66 48.1241 2026.34 47.9489 2027.16 47.9489C2027.9 47.9489 2028.55 48.1051 2029.11 48.4176C2029.67 48.7254 2030.1 49.1847 2030.41 49.7955C2030.72 50.4062 2030.87 51.1615 2030.87 52.0611V59H2028.75V52.3168C2028.75 51.526 2028.54 50.9081 2028.13 50.4631C2027.72 50.0133 2027.15 49.7884 2026.43 49.7884C2025.94 49.7884 2025.5 49.8949 2025.12 50.108C2024.74 50.321 2024.44 50.6335 2024.22 51.0455C2024 51.4527 2023.89 51.9451 2023.89 52.5227Z" fill="#F1D66F"/>
<g filter="url(#filter1_b_825_789)">
<rect width="2193" height="4" transform="matrix(1 0 0 -1 0 108)" fill="url(#paint0_linear_825_789)" fill-opacity="0.6"/>
</g>
<path d="M223.273 72.6466C219.883 72.6466 217.323 72.0743 215.594 70.9299C213.865 69.7518 213 67.6311 213 64.568C213.678 47.7377 214.763 39.7097 216.255 40.4839C217.001 40.5175 217.374 41.662 217.374 43.9173C217.374 45.2973 217.136 48.209 216.662 52.6522C216.051 57.7686 215.746 61.5217 215.746 63.9116L215.797 65.3759C215.797 66.1164 216.018 66.8569 216.458 67.5975C216.933 68.338 217.526 68.7419 218.238 68.8093L228.206 69.6676C228.579 69.7013 228.766 70.0547 228.766 70.7279C228.766 71.3338 228.613 71.7546 228.308 71.9902C228.037 72.2258 227.545 72.4109 226.833 72.5456L223.273 72.6466Z" fill="#142664"/>
<path d="M243.877 72.5456C240.35 72.5456 237.282 71.9397 234.671 70.7279C232.095 69.4825 230.806 67.3114 230.806 64.2146C230.806 63.1038 231.145 62.0266 231.823 60.9832C232.501 59.9397 233.502 59.0982 234.824 58.4586C236.146 57.7854 237.757 57.4488 239.655 57.4488C241.113 57.4488 242.351 57.5161 243.368 57.6508C244.385 57.7854 245.555 58.1557 246.877 58.7616C248.2 59.3675 249.573 60.3268 250.997 61.6396C250.454 59.317 249.641 57.2805 248.556 55.5302C247.471 53.7798 246.25 52.4334 244.894 51.4909C243.571 50.5147 242.266 50.0266 240.978 50.0266C240.367 50.0266 239.791 50.1445 239.249 50.3801C238.74 50.582 238.113 50.885 237.367 51.2889C236.519 51.8275 235.892 52.0968 235.485 52.0968C235.316 52.0968 235.163 52.0463 235.027 51.9453C234.926 51.8107 234.875 51.6592 234.875 51.4909C234.875 50.1445 235.468 49.101 236.655 48.3604C237.875 47.6199 239.35 47.2833 241.079 47.3506C243.453 47.4853 245.623 48.4951 247.589 50.3801C249.556 52.2314 251.098 54.5372 252.217 57.2973C253.37 60.0575 253.946 62.7672 253.946 65.4264C253.946 65.864 253.913 66.4867 253.845 67.2945L252.217 67.1935C250.929 64.6017 249.268 62.7672 247.233 61.69C245.233 60.5792 243.215 60.0238 241.181 60.0238C238.57 60.0238 236.706 60.4109 235.587 61.1851C234.468 61.9593 233.909 63.087 233.909 64.568C233.909 66.1164 234.688 67.3619 236.248 68.3043C237.808 69.2468 239.808 69.7181 242.249 69.7181C243.605 69.7181 244.69 69.6508 245.504 69.5161C246.318 69.3478 247.165 69.129 248.047 68.8597C248.759 68.6241 249.386 68.4558 249.929 68.3548C250.471 68.2539 251.166 68.2034 252.014 68.2034C252.963 68.2034 253.557 68.2707 253.794 68.4053C254.065 68.54 254.201 68.8429 254.201 69.3142C254.201 69.6508 253.506 70.0715 252.116 70.5764C250.725 71.0813 249.166 71.5358 247.437 71.9397C245.708 72.3436 244.521 72.5456 243.877 72.5456Z" fill="#142664"/>
<path d="M280.852 72.2931C278.954 72.2931 277.411 71.9397 276.224 71.2328C275.071 70.4923 274.258 69.3478 273.783 67.7994C272.766 69.5498 271.596 70.8626 270.274 71.7377C268.951 72.5792 267.527 73 266.002 73C263.357 73 261.323 72.0575 259.899 70.1725C258.475 68.2875 257.763 65.2412 257.763 61.0337C257.763 59.0477 257.966 57.3647 258.373 55.9846C258.814 54.6045 259.543 53.3422 260.56 52.1978C261.035 52.3661 261.323 52.6017 261.425 52.9046C261.56 53.1739 261.628 53.5778 261.628 54.1164C261.628 54.655 261.56 55.1935 261.425 55.7321C261.323 56.2707 261.255 56.5905 261.221 56.6914C260.984 57.7013 260.797 58.5933 260.662 59.3675C260.56 60.108 260.509 61.0337 260.509 62.1445C260.509 64.568 260.967 66.554 261.882 68.1024C262.832 69.6171 264.188 70.3745 265.951 70.3745C267.951 70.3745 269.511 69.7349 270.63 68.4558C271.783 67.1431 272.359 65.5105 272.359 63.5582L272.003 58.4081C272.003 58.2062 272.139 58.0042 272.41 57.8022C272.715 57.6003 273.054 57.4993 273.427 57.4993C273.902 57.4993 274.224 57.8191 274.393 58.4586C274.563 59.0982 274.715 60.108 274.851 61.4881C275.054 63.2048 275.275 64.6185 275.512 65.7293C275.783 66.8065 276.292 67.7658 277.038 68.6073C277.784 69.4151 278.869 69.8191 280.293 69.8191C282.022 69.8191 283.276 69.3478 284.056 68.4053C284.836 67.4292 285.226 66.1669 285.226 64.6185C285.226 63.2384 284.955 61.791 284.412 60.2763C283.904 58.7279 283.276 57.4656 282.531 56.4895C282.497 56.1865 282.649 55.9341 282.988 55.7321C283.361 55.5302 283.734 55.4797 284.107 55.5806C284.717 55.7153 285.277 56.2539 285.785 57.1964C286.328 58.1389 286.752 59.317 287.057 60.7307C287.396 62.1445 287.565 63.5582 287.565 64.9719C287.565 67.0926 287.023 68.8429 285.938 70.223C284.887 71.6031 283.192 72.2931 280.852 72.2931Z" fill="#142664"/>
<path d="M315.652 72.6466C312.261 72.6466 309.701 72.0743 307.972 70.9299C306.243 69.7518 305.378 67.6311 305.378 64.568C306.056 47.7377 307.141 39.7097 308.633 40.4839C309.379 40.5175 309.752 41.662 309.752 43.9173C309.752 45.2973 309.515 48.209 309.04 52.6522C308.43 57.7686 308.125 61.5217 308.125 63.9116L308.176 65.3759C308.176 66.1164 308.396 66.8569 308.837 67.5975C309.311 68.338 309.905 68.7419 310.617 68.8093L320.585 69.6676C320.958 69.7013 321.144 70.0547 321.144 70.7279C321.144 71.3338 320.992 71.7546 320.687 71.9902C320.415 72.2258 319.924 72.4109 319.212 72.5456L315.652 72.6466Z" fill="#142664"/>
<path d="M329.593 72.5456C329.152 72.7139 328.728 72.6129 328.321 72.2426C327.948 71.8724 327.745 71.3506 327.711 70.6774C327.575 69.7013 327.423 68.5063 327.253 67.0926C327.118 65.6788 327.016 64.6353 326.948 63.9621C326.88 63.2889 326.728 61.993 326.49 60.0743C326.287 58.122 326.066 56.439 325.829 55.0252C325.761 54.554 325.541 53.7125 325.168 52.5007C324.185 49.0337 323.693 46.5259 323.693 44.9776C323.93 44.641 324.168 44.4727 324.405 44.4727C325.287 44.4727 326.202 46.223 327.151 49.7237C328.101 53.2244 328.898 57.1795 329.542 61.5891C330.22 65.9649 330.559 68.9607 330.559 70.5764C330.559 70.6438 330.559 70.8626 330.559 71.2328C330.559 71.5694 330.474 71.8555 330.305 72.0912C330.169 72.3268 329.932 72.4783 329.593 72.5456Z" fill="#142664"/>
<path d="M347.665 37C349.191 37 350.649 37.3871 352.039 38.1613C353.429 38.9018 354.548 39.8612 355.395 41.0393C356.277 42.2174 356.718 43.3955 356.718 44.5736H355.599C355.09 44.5736 354.633 44.4222 354.226 44.1192C353.853 43.8163 353.361 43.3282 352.751 42.655C351.869 41.7125 351.073 41.0056 350.36 40.5344C349.682 40.0631 348.801 39.8275 347.716 39.8275C345.851 39.8275 344.291 40.6858 343.037 42.4025C341.782 44.0856 341.037 46.0715 340.799 48.3604C340.698 49.4039 340.647 50.4474 340.647 51.4909C340.647 53.2076 340.765 54.7896 341.003 56.237C341.443 56.3043 342.478 56.3885 344.105 56.4895C345.732 56.5905 347.072 56.6746 348.123 56.7419C348.496 56.7419 349.225 56.7756 350.31 56.8429C350.649 56.8429 350.886 56.9271 351.022 57.0954C351.191 57.23 351.276 57.4825 351.276 57.8527C351.276 58.7616 350.242 59.216 348.174 59.216C346.377 59.216 344.122 58.8962 341.41 58.2567C341.782 59.7714 342.257 61.1683 342.834 62.4474C343.41 63.6928 344.156 65.1907 345.071 66.9411C345.715 68.1865 346.19 69.1627 346.495 69.8696C346.8 70.5428 346.953 71.115 346.953 71.5863C346.953 71.9565 346.834 72.2258 346.597 72.3941C346.36 72.5288 346.021 72.5961 345.58 72.5961C344.664 72.5961 343.8 71.6367 342.986 69.7181C342.206 67.7658 341.308 65.0729 340.291 61.6396L339.375 58.6606C338.629 58.7279 337.697 58.9299 336.578 59.2665C336.476 59.3001 336.12 59.4011 335.51 59.5694C334.934 59.7041 334.408 59.7714 333.933 59.7714C333.391 59.7714 333.12 59.4516 333.12 58.8121C333.12 57.9705 333.56 57.4151 334.442 57.1459C335.324 56.8429 336.154 56.6746 336.934 56.641C337.714 56.5736 338.205 56.5231 338.409 56.4895C338.341 55.2104 338.307 54.0659 338.307 53.0561C338.307 48.7139 338.968 44.9607 340.291 41.7966C341.647 38.5989 344.105 37 347.665 37Z" fill="#142664"/>
<path d="M364.897 72.5456C364.558 72.6129 364.338 72.6466 364.236 72.6466C363.185 72.6466 362.456 71.8724 362.049 70.324C361.676 68.7756 361.49 66.6045 361.49 63.8107C361.49 62.6662 361.524 60.8822 361.591 58.4586C361.659 56.9776 361.693 55.8668 361.693 55.1262C357.523 55.1262 355.438 54.655 355.438 53.7125C355.438 53.4095 355.471 53.1739 355.539 53.0056C355.641 52.8373 355.844 52.7532 356.15 52.7532L361.693 52.3997C361.659 50.7504 361.574 48.9495 361.439 46.9972C361.303 45.2468 361.218 43.6311 361.184 42.1501C361.184 41.7798 361.337 41.5273 361.642 41.3927C361.947 41.2244 362.269 41.1403 362.608 41.1403C363.015 41.1403 363.354 41.359 363.626 41.7966C363.897 42.2006 364.032 42.6213 364.032 43.0589L364.388 52.2987L368.61 52.5007C369.254 52.4334 369.796 52.5512 370.237 52.8541C370.712 53.1571 370.966 53.662 371 54.3689C370.288 54.6718 369.508 54.8569 368.661 54.9243C367.813 54.9916 366.389 55.0252 364.388 55.0252C364.388 58.1557 364.541 63.3058 364.846 70.4755C364.846 71.216 364.846 71.7377 364.846 72.0407C364.88 72.31 364.897 72.4783 364.897 72.5456Z" fill="#142664"/>
<path d="M143.678 37.3276V41.2069H148.366C149.813 41.2069 151.236 41.4552 152.492 41.9238L158.631 44.2079C158.812 44.2762 159.012 44.3103 159.221 44.3103H169.853C170.8 44.3103 171.708 44.5556 172.377 44.9921C173.047 45.4286 173.423 46.0206 173.423 46.6379C173.423 47.2552 173.047 47.8473 172.377 48.2838C171.708 48.7203 170.8 48.9655 169.853 48.9655H167.821L177.868 63.5269C178.165 63.9577 178.254 64.4372 178.123 64.9017C177.992 65.3662 177.647 65.7938 177.135 66.1276L174.613 64.4828L177.13 66.1307L177.125 66.1369L177.116 66.1431L177.087 66.1617L177.059 66.1772L177.011 66.2083L176.797 66.3324C175.798 66.8786 174.698 67.3472 173.532 67.729C171.31 68.4552 168.092 69.1379 163.904 69.1379C160.571 69.1636 157.274 68.6811 154.277 67.729C153.109 67.3474 152.014 66.8788 151.012 66.3324L150.798 66.2083L150.722 66.1617L150.693 66.1431L150.674 66.1307V66.1276C150.162 65.7938 149.817 65.3662 149.686 64.9017C149.555 64.4372 149.644 63.9577 149.941 63.5269L159.992 48.9655H159.221C157.77 48.9655 156.347 48.7203 155.09 48.2486L148.951 45.9645C148.772 45.8968 148.568 45.8614 148.361 45.8621H143.678V75.3448H155.576C156.523 75.3448 157.43 75.5901 158.1 76.0266C158.769 76.4631 159.145 77.0551 159.145 77.6724C159.145 78.2897 158.769 78.8818 158.1 79.3183C157.43 79.7548 156.523 80 155.576 80H124.641C123.695 80 122.787 79.7548 122.117 79.3183C121.448 78.8818 121.072 78.2897 121.072 77.6724C121.072 77.0551 121.448 76.4631 122.117 76.0266C122.787 75.5901 123.695 75.3448 124.641 75.3448H136.539V45.8621H131.856C131.649 45.8614 131.445 45.8968 131.266 45.9645L125.131 48.2517C123.87 48.7172 122.447 48.9655 120.996 48.9655H120.225L130.276 63.5269C130.573 63.9577 130.662 64.4372 130.531 64.9017C130.4 65.3662 130.056 65.7938 129.543 66.1276L127.021 64.4828L129.538 66.1307L129.534 66.1369L129.524 66.1431L129.496 66.1617L129.419 66.2083L129.205 66.3324C128.206 66.8786 127.107 67.3472 125.941 67.729C123.718 68.4552 120.501 69.1379 116.313 69.1379C112.979 69.1636 109.682 68.6811 106.685 67.729C105.517 67.3474 104.422 66.8788 103.42 66.3324L103.206 66.2083L103.13 66.1617L103.101 66.1431L103.082 66.1307V66.1276C102.57 65.7938 102.225 65.3662 102.094 64.9017C101.964 64.4372 102.052 63.9577 102.349 63.5269L112.401 48.9655H110.364C109.417 48.9655 108.509 48.7203 107.84 48.2838C107.17 47.8473 106.794 47.2552 106.794 46.6379C106.794 46.0206 107.17 45.4286 107.84 44.9921C108.509 44.5556 109.417 44.3103 110.364 44.3103H120.996C121.204 44.311 121.41 44.2756 121.591 44.2079L127.72 41.9207C128.982 41.4552 130.405 41.2069 131.856 41.2069H136.539V37.3276C136.539 36.7103 136.915 36.1182 137.585 35.6817C138.254 35.2452 139.162 35 140.109 35C141.055 35 141.963 35.2452 142.632 35.6817C143.302 36.1182 143.678 36.7103 143.678 37.3276ZM157.694 63.6355C159.05 64.0545 161.111 64.4828 163.904 64.4828C166.698 64.4828 168.759 64.0545 170.115 63.6355L163.904 54.6355L157.694 63.6355ZM110.102 63.6355C111.458 64.0545 113.519 64.4828 116.313 64.4828C119.106 64.4828 121.167 64.0545 122.523 63.6355L116.313 54.6355L110.102 63.6355Z" fill="#142664"/>
<path d="M332.676 723.098C7.39124 665.566 -332.266 754.135 -332.266 754.135V1212.12L2208.73 1238.61V643.614C2208.73 643.614 1884.69 815.001 1658.02 859.358C1415.06 906.904 1270.61 882.134 1024.09 859.358C750.057 834.039 657.96 780.63 332.676 723.098Z" stroke="#142664"/>
<path d="M339.741 727.05C16.4055 659.413 -325.861 737.259 -325.861 737.259L-340.172 1194.71L2198.82 1300.63L2217.41 706.319C2217.41 706.319 1888.16 867.375 1660.21 904.594C1415.88 944.488 1272.27 915.23 1026.58 884.772C753.461 850.913 663.076 794.686 339.741 727.05Z" stroke="#142664"/>
<path d="M358.082 732.248C37.242 653.621 -307.481 719.746 -307.481 719.746L-337.389 1176.45L2196.51 1368.92L2235.36 775.583C2235.36 775.583 1900.81 925.314 1671.73 954.735C1426.17 986.27 1283.65 952.13 1039.14 913.309C767.336 870.153 678.921 810.876 358.082 732.248Z" stroke="#142664"/>
<path d="M387.388 747.472C68.7921 660.198 -277.593 716.976 -277.593 716.976L-319.839 1172.7L2207.93 1433.62L2262.81 841.554C2262.81 841.554 1924.33 982.184 1694.54 1005.4C1448.22 1030.28 1306.67 992.302 1063.3 946.883C792.764 896.393 705.984 834.746 387.388 747.472Z" stroke="#142664"/>
<path d="M428.318 767.712C111.355 674.682 -236.002 725.178 -236.002 725.178L-286.495 1180.06L2236.13 1486.72L2301.73 895.744C2301.73 895.744 1960.76 1030.22 1730.58 1049.27C1483.85 1069.69 1343.01 1029.15 1100.51 979.331C830.93 923.95 745.281 860.742 428.318 767.712Z" stroke="#142664"/>
<path d="M513.641 830.157C195.045 742.883 -151.34 799.662 -151.34 799.662L-193.586 1255.39L2334.18 1516.3L2389.07 924.24C2389.07 924.24 2050.59 1064.87 1820.79 1088.08C1574.47 1112.97 1432.92 1074.99 1189.55 1029.57C919.017 979.078 832.237 917.432 513.641 830.157Z" stroke="#142664"/>
<path d="M531.379 859.396C212.783 772.122 -133.602 828.901 -133.602 828.901L-175.848 1284.62L2351.92 1545.54L2406.8 953.478C2406.8 953.478 2068.32 1094.11 1838.53 1117.32C1592.21 1142.21 1450.66 1104.23 1207.29 1058.81C936.755 1008.32 849.975 946.671 531.379 859.396Z" stroke="#142664"/>
<path d="M586.94 897.713C268.344 810.439 -78.0412 867.217 -78.0412 867.217L-120.287 1322.94L2407.48 1583.86L2462.36 991.795C2462.36 991.795 2123.88 1132.42 1894.09 1155.64C1647.77 1180.52 1506.22 1142.54 1262.85 1097.12C992.316 1046.63 905.536 984.987 586.94 897.713Z" stroke="#142664"/>
<path d="M642.503 942.082C323.906 854.807 -22.4787 911.586 -22.4787 911.586L-64.7249 1367.31L2463.04 1628.23L2517.93 1036.16C2517.93 1036.16 2179.45 1176.79 1949.65 1200.01C1703.33 1224.89 1561.78 1186.91 1318.42 1141.49C1047.88 1091 961.099 1029.36 642.503 942.082Z" stroke="#142664"/>
<path d="M698.063 981.911C379.467 894.637 33.0819 951.416 33.0819 951.416L-9.16439 1407.14L2518.6 1668.06L2573.49 1075.99C2573.49 1075.99 2235.01 1216.62 2005.21 1239.84C1758.9 1264.72 1617.34 1226.74 1373.98 1181.32C1103.44 1130.83 1016.66 1069.19 698.063 981.911Z" stroke="#142664"/>
<path d="M753.626 1027.79C435.029 940.519 88.6444 997.298 88.6444 997.298L46.3981 1453.02L2574.16 1713.94L2629.05 1121.88C2629.05 1121.88 2290.57 1262.5 2060.77 1285.72C1814.46 1310.6 1672.91 1272.62 1429.54 1227.2C1159 1176.71 1072.22 1115.07 753.626 1027.79Z" stroke="#142664"/>
<path d="M809.186 1073.67C490.59 986.401 144.205 1043.18 144.205 1043.18L101.959 1498.9L2629.73 1759.82L2684.61 1167.76C2684.61 1167.76 2346.13 1308.39 2116.33 1331.6C1870.02 1356.49 1728.47 1318.5 1485.1 1273.09C1214.56 1222.6 1127.78 1160.95 809.186 1073.67Z" stroke="#142664"/>
<path d="M864.749 1119.56C546.152 1032.28 199.767 1089.06 199.767 1089.06L157.521 1544.79L2685.29 1805.7L2740.17 1213.64C2740.17 1213.64 2401.69 1354.27 2171.9 1377.48C1925.58 1402.37 1784.03 1364.39 1540.66 1318.97C1270.12 1268.48 1183.34 1206.83 864.749 1119.56Z" stroke="#142664"/>
<path d="M920.31 1126.1C601.714 1038.83 255.328 1095.6 255.328 1095.6L213.082 1551.33L2740.85 1812.25L2795.73 1220.18C2795.73 1220.18 2457.25 1360.81 2227.46 1384.03C1981.14 1408.91 1839.59 1370.93 1596.22 1325.51C1325.69 1275.02 1238.91 1213.37 920.31 1126.1Z" stroke="#142664"/>
</g>
<defs>
<filter id="filter0_b_825_789" x="-30" y="-30" width="2253" height="165" filterUnits="userSpaceOnUse" color-interpolation-filters="sRGB">
<feFlood flood-opacity="0" result="BackgroundImageFix"/>
<feGaussianBlur in="BackgroundImageFix" stdDeviation="15"/>
<feComposite in2="SourceAlpha" operator="in" result="effect1_backgroundBlur_825_789"/>
<feBlend mode="normal" in="SourceGraphic" in2="effect1_backgroundBlur_825_789" result="shape"/>
</filter>
<filter id="filter1_b_825_789" x="-30" y="74" width="2253" height="64" filterUnits="userSpaceOnUse" color-interpolation-filters="sRGB">
<feFlood flood-opacity="0" result="BackgroundImageFix"/>
<feGaussianBlur in="BackgroundImageFix" stdDeviation="15"/>
<feComposite in2="SourceAlpha" operator="in" result="effect1_backgroundBlur_825_789"/>
<feBlend mode="normal" in="SourceGraphic" in2="effect1_backgroundBlur_825_789" result="shape"/>
</filter>
<linearGradient id="paint0_linear_825_789" x1="1096.5" y1="0" x2="1096.5" y2="4" gradientUnits="userSpaceOnUse">
<stop stop-color="white"/>
<stop offset="1" stop-color="white" stop-opacity="0.13"/>
</linearGradient>
<clipPath id="clip0_825_789">
<rect width="2193" height="1024" fill="white"/>
</clipPath>
</defs>
</svg>
