<svg width="1440" height="1024" viewBox="0 0 1440 1024" fill="none" xmlns="http://www.w3.org/2000/svg">
<g clip-path="url(#clip0_807_330)">
<rect width="1440" height="1024" fill="#F0D6BD"/>
<circle cx="673.638" cy="746.691" r="40.6915" fill="#FAFAFA" fill-opacity="0.9"/>
<circle cx="673.638" cy="746.691" r="40.6915" fill="#FAFAFA" fill-opacity="0.9"/>
<circle cx="707.819" cy="780.872" r="34.1809" fill="#FAFAFA" fill-opacity="0.9"/>
<circle cx="619.112" cy="776.803" r="30.1117" fill="#FAFAFA" fill-opacity="0.9"/>
<circle cx="649.223" cy="787.383" r="30.1117" fill="#FAFAFA" fill-opacity="0.9"/>
<circle cx="649.223" cy="787.383" r="30.1117" fill="#FAFAFA" fill-opacity="0.9"/>
<circle cx="456.638" cy="953.691" r="40.6915" fill="#FAFAFA" fill-opacity="0.9"/>
<circle cx="456.638" cy="953.691" r="40.6915" fill="#FAFAFA" fill-opacity="0.9"/>
<circle cx="490.819" cy="987.872" r="34.1809" fill="#FAFAFA" fill-opacity="0.9"/>
<circle cx="402.112" cy="983.803" r="30.1117" fill="#FAFAFA" fill-opacity="0.9"/>
<circle cx="432.223" cy="994.383" r="30.1117" fill="#FAFAFA" fill-opacity="0.9"/>
<circle cx="432.223" cy="994.383" r="30.1117" fill="#FAFAFA" fill-opacity="0.9"/>
<circle cx="1071" cy="806" r="50" fill="#FAFAFA" fill-opacity="0.9"/>
<circle cx="1113" cy="848" r="42" fill="#FAFAFA" fill-opacity="0.9"/>
<circle cx="1004" cy="843" r="37" fill="#FAFAFA" fill-opacity="0.9"/>
<circle cx="1041" cy="856" r="37" fill="#FAFAFA" fill-opacity="0.9"/>
<circle cx="50" cy="50" r="50" transform="matrix(-1 0 0 1 1212 738)" fill="#FAFAFA" fill-opacity="0.9"/>
<circle cx="42" cy="42" r="42" transform="matrix(-1 0 0 1 1162 788)" fill="#FAFAFA" fill-opacity="0.9"/>
<circle cx="37" cy="37" r="37" transform="matrix(-1 0 0 1 1266 788)" fill="#FAFAFA" fill-opacity="0.9"/>
<circle cx="37" cy="37" r="37" transform="matrix(-1 0 0 1 1229 801)" fill="#FAFAFA" fill-opacity="0.9"/>
<circle cx="442" cy="646" r="42" fill="#FAFAFA" fill-opacity="0.9"/>
<circle cx="365" cy="633" r="50" fill="#FAFAFA" fill-opacity="0.9"/>
<circle cx="365" cy="633" r="50" fill="#FAFAFA" fill-opacity="0.9"/>
<circle cx="407" cy="675" r="42" fill="#FAFAFA" fill-opacity="0.9"/>
<circle cx="298" cy="670" r="37" fill="#FAFAFA" fill-opacity="0.9"/>
<circle cx="335" cy="683" r="37" fill="#FAFAFA" fill-opacity="0.9"/>
<circle cx="887.126" cy="950.812" r="27.8744" fill="#FAFAFA" fill-opacity="0.9"/>
<circle cx="836.022" cy="942.184" r="33.1839" fill="#FAFAFA" fill-opacity="0.9"/>
<circle cx="836.022" cy="942.184" r="33.1839" fill="#FAFAFA" fill-opacity="0.9"/>
<circle cx="863.897" cy="970.058" r="27.8744" fill="#FAFAFA" fill-opacity="0.9"/>
<circle cx="791.556" cy="966.74" r="24.5561" fill="#FAFAFA" fill-opacity="0.9"/>
<circle cx="816.112" cy="975.368" r="24.5561" fill="#FAFAFA" fill-opacity="0.9"/>
<circle cx="1184.13" cy="579.812" r="27.8744" fill="#FAFAFA" fill-opacity="0.9"/>
<circle cx="1133.02" cy="571.184" r="33.1839" fill="#FAFAFA" fill-opacity="0.9"/>
<circle cx="1133.02" cy="571.184" r="33.1839" fill="#FAFAFA" fill-opacity="0.9"/>
<circle cx="1160.9" cy="599.058" r="27.8744" fill="#FAFAFA" fill-opacity="0.9"/>
<circle cx="1088.56" cy="595.74" r="24.5561" fill="#FAFAFA" fill-opacity="0.9"/>
<circle cx="1113.11" cy="604.368" r="24.5561" fill="#FAFAFA" fill-opacity="0.9"/>
<circle cx="276.638" cy="26.6915" r="40.6915" fill="#FAFAFA" fill-opacity="0.9"/>
<circle cx="276.638" cy="26.6915" r="40.6915" fill="#FAFAFA" fill-opacity="0.9"/>
<circle cx="310.819" cy="60.8724" r="34.1809" fill="#FAFAFA" fill-opacity="0.9"/>
<circle cx="222.112" cy="56.8032" r="30.1117" fill="#FAFAFA" fill-opacity="0.9"/>
<circle cx="252.223" cy="67.3829" r="30.1117" fill="#FAFAFA" fill-opacity="0.9"/>
<circle cx="252.223" cy="67.3829" r="30.1117" fill="#FAFAFA" fill-opacity="0.9"/>
<circle cx="1435.64" cy="182.691" r="40.6915" fill="#FAFAFA" fill-opacity="0.9"/>
<circle cx="1435.64" cy="182.691" r="40.6915" fill="#FAFAFA" fill-opacity="0.9"/>
<circle cx="1469.82" cy="216.872" r="34.1809" fill="#FAFAFA" fill-opacity="0.9"/>
<circle cx="1381.11" cy="212.803" r="30.1117" fill="#FAFAFA" fill-opacity="0.9"/>
<circle cx="1411.22" cy="223.383" r="30.1117" fill="#FAFAFA" fill-opacity="0.9"/>
<circle cx="1411.22" cy="223.383" r="30.1117" fill="#FAFAFA" fill-opacity="0.9"/>
<circle cx="59.6383" cy="233.691" r="40.6915" fill="#FAFAFA" fill-opacity="0.9"/>
<circle cx="59.6383" cy="233.691" r="40.6915" fill="#FAFAFA" fill-opacity="0.9"/>
<circle cx="93.8192" cy="267.872" r="34.1809" fill="#FAFAFA" fill-opacity="0.9"/>
<circle cx="5.1117" cy="263.803" r="30.1117" fill="#FAFAFA" fill-opacity="0.9"/>
<circle cx="35.2234" cy="274.383" r="30.1117" fill="#FAFAFA" fill-opacity="0.9"/>
<circle cx="35.2234" cy="274.383" r="30.1117" fill="#FAFAFA" fill-opacity="0.9"/>
<circle cx="674" cy="86" r="50" fill="#FAFAFA" fill-opacity="0.9"/>
<circle cx="716" cy="128" r="42" fill="#FAFAFA" fill-opacity="0.9"/>
<circle cx="607" cy="123" r="37" fill="#FAFAFA" fill-opacity="0.9"/>
<circle cx="644" cy="136" r="37" fill="#FAFAFA" fill-opacity="0.9"/>
<circle cx="50" cy="50" r="50" transform="matrix(-1 0 0 1 815 18)" fill="#FAFAFA" fill-opacity="0.9"/>
<circle cx="42" cy="42" r="42" transform="matrix(-1 0 0 1 765 68)" fill="#FAFAFA" fill-opacity="0.9"/>
<circle cx="37" cy="37" r="37" transform="matrix(-1 0 0 1 869 68)" fill="#FAFAFA" fill-opacity="0.9"/>
<circle cx="37" cy="37" r="37" transform="matrix(-1 0 0 1 832 81)" fill="#FAFAFA" fill-opacity="0.9"/>
<circle cx="1240" cy="7" r="42" fill="#FAFAFA" fill-opacity="0.9"/>
<circle cx="1163" cy="-6" r="50" fill="#FAFAFA" fill-opacity="0.9"/>
<circle cx="1163" cy="-6" r="50" fill="#FAFAFA" fill-opacity="0.9"/>
<circle cx="1205" cy="36" r="42" fill="#FAFAFA" fill-opacity="0.9"/>
<circle cx="1096" cy="31" r="37" fill="#FAFAFA" fill-opacity="0.9"/>
<circle cx="1133" cy="44" r="37" fill="#FAFAFA" fill-opacity="0.9"/>
<circle cx="490.126" cy="230.812" r="27.8744" fill="#FAFAFA" fill-opacity="0.9"/>
<circle cx="439.022" cy="222.184" r="33.1839" fill="#FAFAFA" fill-opacity="0.9"/>
<circle cx="439.022" cy="222.184" r="33.1839" fill="#FAFAFA" fill-opacity="0.9"/>
<circle cx="466.897" cy="250.058" r="27.8744" fill="#FAFAFA" fill-opacity="0.9"/>
<circle cx="394.556" cy="246.74" r="24.5561" fill="#FAFAFA" fill-opacity="0.9"/>
<circle cx="419.112" cy="255.368" r="24.5561" fill="#FAFAFA" fill-opacity="0.9"/>
<circle cx="307.638" cy="336.691" r="40.6915" fill="#FAFAFA" fill-opacity="0.9"/>
<circle cx="307.638" cy="336.691" r="40.6915" fill="#FAFAFA" fill-opacity="0.9"/>
<circle cx="341.819" cy="370.872" r="34.1809" fill="#FAFAFA" fill-opacity="0.9"/>
<circle cx="253.112" cy="366.803" r="30.1117" fill="#FAFAFA" fill-opacity="0.9"/>
<circle cx="283.223" cy="377.383" r="30.1117" fill="#FAFAFA" fill-opacity="0.9"/>
<circle cx="283.223" cy="377.383" r="30.1117" fill="#FAFAFA" fill-opacity="0.9"/>
<circle cx="1466.64" cy="492.691" r="40.6915" fill="#FAFAFA" fill-opacity="0.9"/>
<circle cx="1466.64" cy="492.691" r="40.6915" fill="#FAFAFA" fill-opacity="0.9"/>
<circle cx="1412.11" cy="522.803" r="30.1117" fill="#FAFAFA" fill-opacity="0.9"/>
<circle cx="1442.22" cy="533.383" r="30.1117" fill="#FAFAFA" fill-opacity="0.9"/>
<circle cx="1442.22" cy="533.383" r="30.1117" fill="#FAFAFA" fill-opacity="0.9"/>
<circle cx="90.6383" cy="543.691" r="40.6915" fill="#FAFAFA" fill-opacity="0.9"/>
<circle cx="90.6383" cy="543.691" r="40.6915" fill="#FAFAFA" fill-opacity="0.9"/>
<circle cx="124.819" cy="577.872" r="34.1809" fill="#FAFAFA" fill-opacity="0.9"/>
<circle cx="36.1117" cy="573.803" r="30.1117" fill="#FAFAFA" fill-opacity="0.9"/>
<circle cx="66.2234" cy="584.383" r="30.1117" fill="#FAFAFA" fill-opacity="0.9"/>
<circle cx="66.2234" cy="584.383" r="30.1117" fill="#FAFAFA" fill-opacity="0.9"/>
<circle cx="769" cy="315" r="50" fill="#FAFAFA" fill-opacity="0.9"/>
<circle cx="811" cy="357" r="42" fill="#FAFAFA" fill-opacity="0.9"/>
<circle cx="702" cy="352" r="37" fill="#FAFAFA" fill-opacity="0.9"/>
<circle cx="739" cy="365" r="37" fill="#FAFAFA" fill-opacity="0.9"/>
<circle cx="50" cy="50" r="50" transform="matrix(-1 0 0 1 910 247)" fill="#FAFAFA" fill-opacity="0.9"/>
<circle cx="42" cy="42" r="42" transform="matrix(-1 0 0 1 860 297)" fill="#FAFAFA" fill-opacity="0.9"/>
<circle cx="37" cy="37" r="37" transform="matrix(-1 0 0 1 964 297)" fill="#FAFAFA" fill-opacity="0.9"/>
<circle cx="37" cy="37" r="37" transform="matrix(-1 0 0 1 927 310)" fill="#FAFAFA" fill-opacity="0.9"/>
<circle cx="1271" cy="317" r="42" fill="#FAFAFA" fill-opacity="0.9"/>
<circle cx="1194" cy="304" r="50" fill="#FAFAFA" fill-opacity="0.9"/>
<circle cx="1194" cy="304" r="50" fill="#FAFAFA" fill-opacity="0.9"/>
<circle cx="1236" cy="346" r="42" fill="#FAFAFA" fill-opacity="0.9"/>
<circle cx="1127" cy="341" r="37" fill="#FAFAFA" fill-opacity="0.9"/>
<circle cx="1164" cy="354" r="37" fill="#FAFAFA" fill-opacity="0.9"/>
<circle cx="76" cy="236" r="42" fill="#FAFAFA" fill-opacity="0.9"/>
<circle cx="-1" cy="223" r="50" fill="#FAFAFA" fill-opacity="0.9"/>
<circle cx="-1" cy="223" r="50" fill="#FAFAFA" fill-opacity="0.9"/>
<circle cx="41" cy="265" r="42" fill="#FAFAFA" fill-opacity="0.9"/>
<circle cx="-31" cy="273" r="37" fill="#FAFAFA" fill-opacity="0.9"/>
<circle cx="695.126" cy="511.812" r="27.8744" fill="#FAFAFA" fill-opacity="0.9"/>
<circle cx="644.022" cy="503.184" r="33.1839" fill="#FAFAFA" fill-opacity="0.9"/>
<circle cx="644.022" cy="503.184" r="33.1839" fill="#FAFAFA" fill-opacity="0.9"/>
<circle cx="671.897" cy="531.058" r="27.8744" fill="#FAFAFA" fill-opacity="0.9"/>
<circle cx="599.556" cy="527.74" r="24.5561" fill="#FAFAFA" fill-opacity="0.9"/>
<circle cx="624.112" cy="536.368" r="24.5561" fill="#FAFAFA" fill-opacity="0.9"/>
<circle cx="915.126" cy="595.812" r="27.8744" fill="#FAFAFA" fill-opacity="0.9"/>
<circle cx="864.022" cy="587.184" r="33.1839" fill="#FAFAFA" fill-opacity="0.9"/>
<circle cx="864.022" cy="587.184" r="33.1839" fill="#FAFAFA" fill-opacity="0.9"/>
<circle cx="891.897" cy="615.058" r="27.8744" fill="#FAFAFA" fill-opacity="0.9"/>
<circle cx="819.556" cy="611.74" r="24.5561" fill="#FAFAFA" fill-opacity="0.9"/>
<circle cx="844.112" cy="620.368" r="24.5561" fill="#FAFAFA" fill-opacity="0.9"/>
<circle cx="89" cy="835" r="42" fill="#FAFAFA" fill-opacity="0.9"/>
<circle cx="12" cy="822" r="50" fill="#FAFAFA" fill-opacity="0.9"/>
<circle cx="12" cy="822" r="50" fill="#FAFAFA" fill-opacity="0.9"/>
<circle cx="54" cy="864" r="42" fill="#FAFAFA" fill-opacity="0.9"/>
<circle cx="-18" cy="872" r="37" fill="#FAFAFA" fill-opacity="0.9"/>
<circle cx="1391.13" cy="994.812" r="27.8744" fill="#FAFAFA" fill-opacity="0.9"/>
<circle cx="1340.02" cy="986.184" r="33.1839" fill="#FAFAFA" fill-opacity="0.9"/>
<circle cx="1340.02" cy="986.184" r="33.1839" fill="#FAFAFA" fill-opacity="0.9"/>
<circle cx="1367.9" cy="1014.06" r="27.8744" fill="#FAFAFA" fill-opacity="0.9"/>
<circle cx="1295.56" cy="1010.74" r="24.5561" fill="#FAFAFA" fill-opacity="0.9"/>
<circle cx="1320.11" cy="1019.37" r="24.5561" fill="#FAFAFA" fill-opacity="0.9"/>
<circle cx="233.126" cy="1004.81" r="27.8744" fill="#FAFAFA" fill-opacity="0.9"/>
<circle cx="182.022" cy="996.184" r="33.1839" fill="#FAFAFA" fill-opacity="0.9"/>
<circle cx="182.022" cy="996.184" r="33.1839" fill="#FAFAFA" fill-opacity="0.9"/>
<circle cx="209.897" cy="1024.06" r="27.8744" fill="#FAFAFA" fill-opacity="0.9"/>
<circle cx="137.556" cy="1020.74" r="24.5561" fill="#FAFAFA" fill-opacity="0.9"/>
<circle cx="162.112" cy="1029.37" r="24.5561" fill="#FAFAFA" fill-opacity="0.9"/>
</g>
<defs>
<clipPath id="clip0_807_330">
<rect width="1440" height="1024" fill="white"/>
</clipPath>
</defs>
</svg>
